<?xml version="1.0" encoding="iso-8859-1"?>
<!-- Generator: Adobe Illustrator 19.0.0, SVG Export Plug-In . SVG Version: 6.00 Build 0)  -->
<svg version="1.1" id="Capa_1" xmlns="http://www.w3.org/2000/svg" xmlns:xlink="http://www.w3.org/1999/xlink" x="0px" y="0px"
	 viewBox="0 0 512 512" style="enable-background:new 0 0 512 512;" xml:space="preserve">
<g>
	<g>
		<path d="M467,151c-11.955,0-23.347,4.597-32.079,12.944C425.944,172.526,421,183.911,421,196c0,14.05,0,30.905,0,45
			c0,16.542-13.458,30-30,30c-2.571,0-5.083-0.317-7.503-0.937C388.41,261.199,391,251.192,391,241
			c0-12.021-3.549-23.577-10.136-33.389C387.594,189.671,391,170.669,391,151C391,67.738,330.439,0,256,0S121,67.738,121,151
			c0,19.67,3.406,38.671,10.137,56.611C124.549,217.423,121,228.979,121,241c0,10.192,2.59,20.199,7.503,29.063
			c-2.419,0.62-4.932,0.937-7.503,0.937c-16.804,0-31-13.738-31-30v-45c0-24.813-20.187-45-45-45S0,171.187,0,196
			c0,8.284,6.716,15,15,15s15-6.716,15-15c0-8.271,6.729-15,15-15s15,6.729,15,15v45c0,33.424,28.112,60,61,60
			c7.31,0,14.536-1.364,21.306-3.934c5.873,14.319,8.694,27.538,8.694,40.452c0,7.581,0,28.591,0,38.481c0,8.271-6.729,15-15,15
			s-15-6.729-15-15c0-8.284-6.716-15-15-15s-15,6.716-15,15c0,24.813,20.187,45,45,45s45-20.187,45-45v-15h30v106
			c0,8.271-6.729,15-15,15s-15-6.729-15-15c0-8.284-6.716-15-15-15s-15,6.716-15,15c0,24.813,20.187,45,45,45s45-20.187,45-45V361
			h30v106c0,24.813,20.187,45,45,45s45-20.187,45-45c0-8.284-6.716-15-15-15s-15,6.716-15,15c0,8.271-6.729,15-15,15
			s-15-6.729-15-15V361h30v15c0,24.813,20.187,45,45,45s45-20.187,45-45v-30c0-8.284-6.716-15-15-15s-15,6.716-15,15v30
			c0,8.271-6.729,15-15,15s-15-6.729-15-15c0-7.206,0-27.233,0-38.481c0-12.914,2.821-26.133,8.694-40.452
			C376.464,299.636,383.69,301,391,301c33.084,0,60-26.916,60-60c0-14.095,0-30.95,0-45c0-7.991,7.477-15,16-15
			c8.271,0,15,6.729,15,15c0,8.284,6.716,15,15,15s15-6.716,15-15C512,171.187,491.813,151,467,151z M166,256
			c-8.271,0-15-6.729-15-15s6.729-15,15-15s15,6.729,15,15S174.271,256,166,256z M346,256c-8.271,0-15-6.729-15-15s6.729-15,15-15
			s15,6.729,15,15S354.271,256,346,256z M352.962,196.541c-2.27-0.354-4.594-0.541-6.962-0.541c-24.813,0-45,20.187-45,45
			c0,23.419,17.985,42.708,40.868,44.803c-6.41,15.631-9.902,30.463-10.693,45.197h-150.35
			c-0.791-14.734-4.283-29.566-10.693-45.197C193.015,283.708,211,264.419,211,241c0-24.813-20.187-45-45-45
			c-2.367,0-4.692,0.187-6.961,0.541C153.708,182.127,151,166.847,151,151c0-66.72,47.103-121,105-121c57.897,0,105,54.28,105,121
			C361,166.847,358.293,182.127,352.962,196.541z"/>
	</g>
</g>
<g>
</g>
<g>
</g>
<g>
</g>
<g>
</g>
<g>
</g>
<g>
</g>
<g>
</g>
<g>
</g>
<g>
</g>
<g>
</g>
<g>
</g>
<g>
</g>
<g>
</g>
<g>
</g>
<g>
</g>
</svg>
